<?xml version="1.0" standalone="no"?>
<!DOCTYPE svg PUBLIC "-//W3C//DTD SVG 20010904//EN"
 "http://www.w3.org/TR/2001/REC-SVG-20010904/DTD/svg10.dtd">
<svg version="1.0" xmlns="http://www.w3.org/2000/svg"
 width="1431.000000pt" height="1431.000000pt" viewBox="0 0 1431.000000 1431.000000"
 preserveAspectRatio="xMidYMid meet">

<g transform="translate(0.000000,1431.000000) scale(0.100000,-0.100000)"
fill="#000000" stroke="none">
<path d="M3168 8646 c-103 -36 -149 -69 -220 -158 -161 -198 -111 -514 103
-657 348 -232 796 67 713 475 -54 266 -341 430 -596 340z"/>
<path d="M10259 8601 l-29 -29 0 -837 0 -837 29 -29 c47 -47 132 -33 159 26 9
19 12 230 12 841 0 875 1 857 -49 884 -39 20 -91 12 -122 -19z"/>
<path d="M6024 8592 c-12 -9 -56 -87 -99 -172 -106 -211 -415 -822 -596 -1176
-82 -161 -149 -302 -149 -314 0 -12 13 -35 29 -51 24 -23 38 -29 73 -29 24 0
50 6 59 13 8 7 67 112 129 235 l114 222 503 0 503 0 109 -218 c60 -120 117
-224 127 -232 9 -9 38 -15 65 -15 55 0 99 32 99 73 0 20 -300 625 -565 1137
-40 77 -114 222 -164 323 -51 100 -102 191 -113 202 -27 25 -95 26 -124 2z
m475 -1099 c1 -10 -88 -13 -414 -13 -269 0 -415 4 -415 10 0 5 93 197 207 425
l208 415 207 -412 c114 -227 207 -419 207 -425z"/>
<path d="M12113 8593 c-11 -10 -77 -133 -148 -273 -70 -140 -158 -313 -195
-385 -37 -71 -165 -323 -284 -560 -186 -367 -217 -434 -211 -458 16 -61 121
-89 162 -44 11 12 69 118 128 235 l108 212 503 0 504 0 110 -220 c74 -147 118
-225 135 -236 54 -35 155 7 155 64 0 21 -204 432 -543 1092 -46 91 -127 251
-180 355 -53 105 -105 200 -117 213 -26 28 -97 31 -127 5z m271 -680 c113
-227 206 -417 206 -423 0 -7 -144 -10 -415 -10 -269 0 -415 4 -415 10 0 10
413 841 416 837 1 -1 95 -188 208 -414z"/>
<path d="M7820 8541 l-30 -29 0 -797 c0 -527 3 -803 10 -816 28 -52 116 -61
158 -16 21 22 22 32 24 302 l3 279 255 3 254 2 71 -72 c38 -40 113 -120 165
-177 89 -98 195 -212 297 -321 50 -54 84 -64 133 -41 39 19 56 55 46 96 -5 20
-205 253 -246 286 -18 14 -212 231 -209 233 2 2 34 10 70 19 247 62 384 224
396 468 15 283 -152 501 -444 582 -73 21 -104 22 -501 26 l-422 3 -30 -30z
m852 -162 c63 -14 160 -57 207 -92 52 -40 109 -123 127 -184 51 -176 -14 -332
-173 -412 -99 -50 -136 -54 -505 -59 l-348 -4 0 381 0 381 320 0 c197 0 339
-4 372 -11z"/>
<path d="M1751 8039 c-238 -40 -411 -283 -372 -523 41 -252 278 -427 525 -387
373 60 522 515 257 780 -70 70 -137 107 -230 127 -74 15 -101 16 -180 3z"/>
<path d="M2628 7776 c-39 -17 -88 -66 -104 -103 -19 -44 -18 -117 2 -159 23
-48 78 -91 134 -104 171 -41 302 165 195 306 -48 63 -157 92 -227 60z"/>
<path d="M3242 7518 c-108 -52 -142 -189 -73 -286 31 -42 103 -82 148 -82 162
0 257 174 166 304 -55 79 -155 106 -241 64z"/>
<path d="M3855 7188 c-140 -26 -277 -134 -336 -264 -37 -81 -49 -208 -29 -295
39 -168 183 -309 351 -345 338 -72 631 234 544 569 -21 80 -45 123 -108 193
-106 116 -269 171 -422 142z"/>
<path d="M2365 7148 c-69 -37 -108 -101 -108 -174 0 -127 109 -214 238 -190
43 8 113 68 132 113 37 89 -5 198 -95 251 -27 15 -140 15 -167 0z"/>
<path d="M2986 6889 c-163 -87 -126 -326 56 -359 144 -27 268 124 212 258 -44
107 -169 154 -268 101z"/>
<path d="M2407 6559 c-105 -9 -190 -51 -271 -134 -67 -68 -97 -120 -121 -210
-29 -111 -13 -225 46 -334 135 -251 473 -317 695 -135 185 152 221 439 79 628
-106 142 -245 202 -428 185z"/>
<path d="M6075 6518 c-3 -8 -4 -90 -3 -183 3 -153 5 -170 21 -173 16 -3 17 9
15 179 -2 135 -6 183 -15 187 -7 2 -15 -3 -18 -10z"/>
<path d="M9477 6523 c-12 -11 -8 -351 4 -359 30 -18 32 6 29 344 0 21 -19 30
-33 15z"/>
<path d="M5295 6499 c-4 -11 -38 -86 -76 -166 -65 -136 -77 -180 -46 -171 6 2
23 25 36 51 l23 47 89 0 89 0 22 -45 c23 -48 41 -61 56 -42 14 18 -146 347
-169 347 -10 0 -21 -9 -24 -21z m91 -196 c-2 -2 -33 -3 -68 -1 l-65 3 35 75
34 75 34 -74 c19 -40 33 -76 30 -78z"/>
<path d="M5623 6503 c-9 -23 1 -25 98 -25 51 0 97 -2 101 -4 7 -5 -35 -59
-164 -213 -76 -90 -74 -92 95 -89 118 3 142 5 142 18 0 12 -20 16 -108 18 -60
1 -107 7 -105 12 2 5 52 68 111 141 78 95 105 135 97 143 -6 6 -60 11 -136 12
-99 1 -127 -2 -131 -13z"/>
<path d="M6310 6508 c-20 -7 -20 -15 -18 -170 l3 -163 125 0 c104 0 125 2 125
15 0 12 -20 16 -107 18 l-108 3 0 54 0 55 100 0 c93 0 100 1 100 20 0 19 -7
20 -100 20 l-101 0 3 58 3 57 97 0 c94 1 136 13 108 30 -16 10 -205 12 -230 3z"/>
<path d="M6713 6513 c-10 -3 -13 -48 -13 -173 0 -148 2 -169 17 -174 28 -11
33 14 29 142 -2 67 -2 122 0 122 1 0 42 -56 89 -125 87 -126 117 -156 131
-133 12 19 7 329 -5 341 -22 22 -30 -11 -33 -135 l-3 -126 -93 134 c-52 74
-97 134 -100 133 -4 0 -13 -3 -19 -6z"/>
<path d="M7162 6509 c-22 -8 -22 -10 -20 -171 l3 -163 87 -3 c103 -3 134 9
170 65 18 30 23 52 23 103 0 117 -53 170 -173 175 -37 2 -77 -1 -90 -6z m167
-49 c48 -25 69 -122 41 -189 -17 -43 -57 -61 -130 -61 l-60 0 0 128 c0 71 2
131 4 133 9 8 126 0 145 -11z"/>
<path d="M7676 6498 c-9 -12 -16 -25 -16 -29 0 -4 -29 -69 -65 -145 -62 -128
-73 -171 -42 -162 6 2 22 25 35 51 l22 47 90 0 90 0 25 -51 c25 -48 47 -60 53
-27 4 22 -149 338 -164 338 -7 0 -20 -10 -28 -22z m90 -195 c-2 -2 -33 -3 -68
-1 l-65 3 35 75 34 75 34 -74 c19 -40 33 -76 30 -78z"/>
<path d="M8191 6511 c-8 -5 -11 -57 -9 -177 3 -142 5 -169 18 -169 11 0 16 15
18 63 l3 62 47 -1 c45 0 49 -2 101 -65 30 -35 60 -63 65 -61 23 8 15 34 -23
76 l-40 45 29 17 c37 23 50 48 50 99 0 34 -6 48 -34 76 -19 19 -42 34 -52 34
-11 0 -51 2 -90 4 -39 2 -77 1 -83 -3z m147 -39 c31 -3 72 -46 72 -77 0 -47
-31 -65 -115 -65 l-75 0 0 68 c0 38 2 71 5 73 4 5 54 5 113 1z"/>
<path d="M8631 6510 c-8 -4 -11 -59 -9 -171 l3 -164 123 -3 c114 -2 123 -1
120 15 -3 16 -17 18 -106 21 l-102 3 0 54 0 55 100 0 c93 0 100 1 100 20 0 19
-7 20 -100 20 l-100 0 0 54 c0 65 6 69 113 66 95 -3 97 -2 97 15 0 17 -4 17
-137 20 -50 1 -96 -1 -102 -5z"/>
<path d="M9105 6508 c-111 -61 -136 -199 -54 -293 57 -65 149 -71 215 -13 34
30 35 33 32 92 l-3 61 -70 0 c-56 0 -70 -3 -70 -15 0 -11 14 -16 53 -18 51 -3
52 -3 52 -35 0 -18 -4 -37 -8 -43 -13 -20 -50 -34 -92 -34 -51 0 -93 37 -109
95 -34 123 107 226 196 144 18 -18 26 -20 35 -11 45 45 -112 106 -177 70z"/>
<path d="M9744 6502 c-52 -33 -78 -79 -82 -147 -3 -49 1 -68 20 -105 52 -96
169 -119 246 -47 79 73 73 219 -10 286 -42 34 -130 40 -174 13z m130 -37 c63
-30 88 -122 52 -197 -41 -85 -170 -81 -208 7 -20 45 -15 121 9 153 38 51 89
64 147 37z"/>
<path d="M10127 6498 c-4 -18 -2 -246 2 -326 1 -8 9 -12 19 -10 15 3 18 20 22
135 l5 133 89 -129 c48 -72 94 -132 101 -135 30 -11 36 21 33 185 -3 156 -4
164 -23 164 -19 0 -20 -7 -20 -133 0 -72 -1 -132 -2 -132 -1 0 -32 44 -69 98
-124 179 -146 199 -157 150z"/>
<path d="M10606 6350 c-57 -122 -76 -174 -69 -181 16 -16 33 -2 55 47 l19 44
89 0 90 0 25 -51 c25 -48 47 -60 53 -28 5 26 -146 334 -166 337 -14 2 -34 -32
-96 -168z m160 -47 c-2 -2 -33 -3 -68 -1 l-65 3 35 75 34 75 34 -74 c19 -40
33 -76 30 -78z"/>
<path d="M11010 6345 l0 -176 123 3 c100 3 122 6 122 18 0 12 -19 16 -102 18
l-102 3 -3 152 c-3 135 -5 152 -20 155 -17 3 -18 -10 -18 -173z"/>
<path d="M11423 6513 l-33 -4 0 -170 0 -169 125 0 c118 0 125 1 125 20 0 19
-7 20 -105 20 l-105 0 0 55 0 55 101 0 c90 0 100 2 97 18 -3 14 -17 17 -101
20 l-97 3 0 57 0 57 98 2 c53 1 100 3 105 3 4 0 7 7 7 15 0 12 -14 15 -64 15
-35 0 -76 2 -92 4 -16 2 -44 2 -61 -1z"/>
<path d="M11987 6507 c-15 -10 -17 -32 -14 -174 1 -89 5 -165 10 -169 13 -14
29 13 34 60 l6 46 69 0 c66 0 72 2 104 34 57 57 47 147 -21 192 -31 20 -165
29 -188 11z m181 -62 c26 -31 29 -86 6 -109 -21 -21 -51 -28 -110 -24 l-49 3
-2 69 c-3 90 5 100 77 93 43 -5 60 -12 78 -32z"/>
<path d="M12410 6512 c-8 -3 -18 -10 -23 -16 -8 -12 -8 -243 0 -293 l5 -33
125 0 c113 0 124 2 121 18 -3 15 -17 17 -106 20 l-102 3 0 54 0 54 98 3 c78 2
97 6 97 18 0 12 -19 16 -98 18 l-98 3 3 57 3 57 90 2 c120 2 115 1 115 17 0 8
-6 16 -12 19 -17 6 -199 6 -218 -1z"/>
<path d="M12820 6513 c-8 -3 -18 -10 -21 -15 -9 -14 -8 -303 1 -318 4 -7 15
-10 24 -7 12 5 16 20 16 62 l0 55 42 0 c39 0 46 -5 103 -67 38 -42 65 -64 73
-59 19 11 15 20 -30 71 -37 41 -40 48 -25 57 83 46 85 167 4 206 -29 14 -161
24 -187 15z m175 -57 c26 -17 35 -53 23 -87 -13 -34 -25 -39 -105 -39 l-73 0
0 68 c0 38 3 72 6 75 12 11 125 -2 149 -17z"/>
<path d="M5614 5879 c-6 -10 -7 -119 -4 -311 0 -15 28 -8 34 9 4 9 6 79 5 154
-1 101 -4 141 -14 149 -10 8 -15 8 -21 -1z"/>
<path d="M7967 5884 c-4 -4 -7 -79 -7 -166 0 -147 1 -159 18 -156 15 3 17 19
17 162 0 150 -6 182 -28 160z"/>
<path d="M10487 5883 c-4 -3 -7 -78 -7 -165 0 -147 1 -159 18 -156 15 3 17 19
20 143 3 167 -3 206 -31 178z"/>
<path d="M12232 5881 c-9 -6 -12 -45 -10 -162 3 -129 5 -154 18 -154 13 0 15
25 18 154 1 85 -1 158 -5 162 -5 5 -14 5 -21 0z"/>
<path d="M13047 5883 c-4 -3 -7 -78 -7 -165 0 -130 2 -158 14 -158 18 0 25 24
22 75 -2 22 -4 88 -5 148 -1 98 -6 119 -24 100z"/>
<path d="M5185 5853 c-7 -29 -6 -200 2 -250 l5 -33 104 0 c86 0 104 3 104 15
0 8 -6 15 -12 16 -7 0 -47 1 -88 2 l-75 2 -3 138 c-2 108 -5 137 -16 137 -8 0
-17 -12 -21 -27z"/>
<path d="M5420 5854 c-14 -35 -12 -54 4 -54 12 0 36 47 36 71 0 20 -31 7 -40
-17z"/>
<path d="M5787 5873 c-9 -8 -9 -276 -1 -297 3 -9 12 -16 20 -16 10 0 14 27 16
121 l3 120 80 -115 c62 -90 85 -116 100 -114 19 3 20 11 20 153 0 127 -2 150
-15 150 -12 0 -16 -21 -18 -119 l-3 -118 -86 121 c-80 113 -99 131 -116 114z"/>
<path d="M6168 5863 c-3 -13 -2 -240 2 -295 0 -16 28 -7 31 10 3 9 4 61 4 114
0 54 4 97 8 95 4 -1 40 -50 80 -107 51 -74 79 -106 95 -108 l23 -3 -3 153 c-3
128 -5 153 -18 153 -12 0 -16 -21 -18 -118 l-3 -118 -83 118 c-81 116 -109
141 -118 106z"/>
<path d="M6589 5856 c-43 -29 -61 -69 -62 -134 -1 -91 59 -157 143 -157 113 0
181 117 132 228 -38 85 -137 114 -213 63z m161 -51 c34 -34 36 -119 4 -162
-42 -57 -132 -53 -167 7 -76 128 60 257 163 155z"/>
<path d="M6880 5866 c0 -22 141 -306 151 -306 11 0 139 265 142 294 1 11 -5
21 -13 23 -10 2 -32 -34 -70 -117 -30 -66 -57 -120 -60 -120 -3 1 -31 55 -62
120 -37 77 -63 120 -73 120 -8 0 -15 -6 -15 -14z"/>
<path d="M7266 5735 c-64 -133 -76 -182 -44 -170 7 3 21 23 30 45 l17 40 80 0
81 0 20 -40 c19 -36 38 -49 52 -34 11 11 -135 304 -151 304 -11 0 -40 -51 -85
-145z m117 20 c15 -31 27 -60 27 -65 0 -6 -27 -10 -61 -10 -45 0 -60 3 -56 13
36 86 51 117 56 117 4 0 19 -25 34 -55z"/>
<path d="M7600 5860 c0 -19 6 -20 91 -20 52 0 89 -4 87 -9 -3 -10 -76 -101
-150 -188 -60 -70 -57 -73 86 -73 78 0 127 4 131 11 4 6 5 12 4 14 -2 2 -48 5
-101 7 -54 1 -98 5 -98 8 0 3 46 58 101 124 55 65 98 123 96 130 -2 7 -46 12
-125 14 -117 2 -122 2 -122 -18z"/>
<path d="M8173 5861 c-85 -53 -94 -193 -18 -260 69 -60 171 -47 212 27 47 83
35 171 -29 221 -42 34 -121 40 -165 12z m144 -42 c74 -62 40 -204 -52 -215
-52 -6 -85 12 -109 59 -34 70 3 169 67 179 27 5 74 -7 94 -23z"/>
<path d="M8507 5861 c-3 -12 -3 -84 0 -161 5 -107 9 -140 19 -140 20 0 25 35
21 145 -4 98 -4 99 14 75 10 -14 47 -65 82 -115 41 -58 72 -91 86 -93 21 -3
21 -1 21 153 0 144 -1 156 -17 153 -16 -3 -18 -18 -21 -122 l-3 -118 -83 118
c-83 120 -109 142 -119 105z"/>
<path d="M8899 5870 l-24 -6 0 -144 0 -145 113 -3 c95 -2 112 0 112 13 0 9 -9
15 -22 16 -38 0 -152 6 -160 8 -5 0 -8 21 -8 46 l0 45 90 0 c83 0 90 1 90 20
0 19 -7 20 -90 20 l-90 0 0 50 0 50 96 0 c83 0 95 2 92 17 -2 13 -18 16 -89
17 -47 1 -97 -1 -110 -4z"/>
<path d="M9366 5865 c-13 -14 -21 -214 -10 -267 l6 -28 109 0 c90 0 109 3 109
15 0 8 -8 15 -17 16 -10 0 -52 1 -93 2 l-75 2 -3 48 -3 47 90 0 c84 0 91 1 91
20 0 19 -7 20 -90 20 l-90 0 0 50 0 50 96 0 c80 0 95 2 92 15 -4 21 -192 30
-212 10z"/>
<path d="M9860 5863 c-46 -24 -80 -85 -80 -143 0 -101 92 -177 182 -151 22 7
51 23 65 37 20 20 24 32 21 77 l-3 52 -65 0 c-51 0 -65 -3 -65 -15 0 -11 13
-16 48 -18 44 -3 47 -5 47 -32 0 -34 -40 -70 -77 -70 -87 0 -143 110 -96 190
31 53 109 67 157 29 21 -16 30 -19 39 -10 8 8 5 18 -15 38 -35 34 -108 42
-158 16z"/>
<path d="M10170 5726 l0 -156 110 0 c91 0 110 3 110 15 0 17 -9 19 -107 15
l-72 -2 -3 138 c-3 123 -5 139 -20 142 -17 3 -18 -9 -18 -152z"/>
<path d="M10784 5732 c-39 -81 -69 -153 -66 -160 8 -25 31 -10 49 33 l18 45
82 0 83 0 20 -40 c21 -41 51 -54 49 -22 -1 30 -133 287 -149 290 -11 2 -36
-41 -86 -146z m119 23 c15 -31 27 -60 27 -65 0 -6 -27 -10 -60 -10 -33 0 -60
4 -60 10 0 14 53 120 60 120 3 0 18 -25 33 -55z"/>
<path d="M11149 5856 c-37 -25 -69 -85 -69 -130 0 -104 97 -185 188 -158 42
13 82 45 82 67 0 21 -14 19 -56 -10 -46 -31 -78 -32 -121 -2 -36 24 -53 61
-53 114 0 53 54 103 110 103 27 0 53 -8 72 -21 21 -15 33 -18 40 -11 8 8 7 16
-2 27 -42 50 -134 60 -191 21z"/>
<path d="M11505 5865 c-48 -24 -75 -73 -75 -133 0 -127 88 -199 193 -158 35
14 43 14 57 1 9 -8 21 -11 29 -6 11 7 10 13 -3 33 -15 23 -15 28 -1 54 33 64
5 166 -58 204 -38 24 -100 25 -142 5z m145 -60 c25 -26 38 -109 22 -133 -8
-12 -13 -12 -30 -1 -28 18 -39 5 -22 -26 16 -31 12 -35 -39 -42 -36 -5 -44 -2
-76 30 -31 31 -35 40 -35 90 0 64 24 102 73 115 39 11 77 -1 107 -33z"/>
<path d="M11829 5868 c-6 -62 6 -218 18 -241 19 -38 92 -71 136 -61 78 17 102
54 111 174 8 93 1 140 -19 140 -9 0 -14 -29 -17 -110 -3 -104 -5 -111 -31
-137 -37 -38 -96 -38 -134 -1 -25 26 -26 31 -24 118 1 51 -1 101 -4 111 -7 21
-34 26 -36 7z"/>
<path d="M12412 5860 c-42 -26 -57 -63 -40 -98 17 -34 51 -51 124 -58 74 -8
94 -18 94 -48 0 -32 -22 -48 -75 -54 -52 -5 -102 12 -110 39 -7 20 -30 26 -40
9 -10 -15 14 -49 48 -70 39 -24 116 -26 162 -5 54 26 73 97 36 134 -19 19 -33
23 -131 36 -50 7 -70 20 -70 46 0 52 134 67 170 19 18 -23 40 -20 40 5 0 8
-15 25 -33 39 -44 33 -125 36 -175 6z"/>
<path d="M12685 5870 c-12 -20 7 -30 61 -30 l54 0 0 -141 c0 -128 2 -140 18
-137 15 3 17 19 20 141 l3 137 55 0 c47 0 55 3 52 18 -3 15 -19 17 -130 20
-79 2 -129 -1 -133 -8z"/>
</g>
</svg>
