<?xml version="1.0" standalone="no"?>
<!DOCTYPE svg PUBLIC "-//W3C//DTD SVG 20010904//EN"
 "http://www.w3.org/TR/2001/REC-SVG-20010904/DTD/svg10.dtd">
<svg version="1.0" xmlns="http://www.w3.org/2000/svg"
 width="3000.000000pt" height="2000.000000pt" viewBox="0 0 3000.000000 2000.000000"
 preserveAspectRatio="xMidYMid meet">

<g transform="translate(0.000000,2000.000000) scale(0.100000,-0.100000)"
fill="#000000" stroke="none">
<path d="M12986 14097 c-4 -1413 -5 -2572 -1 -2575 9 -9 655 -15 720 -7 l50 6
0 1337 0 1337 623 3 622 2 0 340 0 340 -625 0 -625 0 0 530 0 530 1110 0 1110
0 0 248 c0 137 3 296 6 355 l7 105 -54 6 c-30 3 -702 7 -1495 8 l-1441 3 -7
-2568z"/>
<path d="M16413 16663 l-163 -3 0 -1335 0 -1335 -625 0 -625 0 0 -340 0 -340
623 -2 622 -3 0 -535 0 -535 -1106 -3 -1107 -2 -4 -353 c-2 -193 -4 -353 -4
-353 1 -1 670 -4 1488 -6 l1487 -5 5 41 c3 23 8 1181 11 2574 l6 2532 -89 0
c-49 0 -149 2 -223 3 -74 2 -207 2 -296 0z"/>
<path d="M5368 9263 l-1348 -3 0 -2508 c0 -1380 3 -2712 7 -2960 l6 -452 574
0 573 0 0 1245 0 1245 1215 0 1215 0 0 494 c0 271 -3 508 -6 525 l-6 31 -1209
0 -1209 0 0 665 0 665 1385 0 1385 0 0 530 0 530 -617 -2 c-340 -2 -1224 -4
-1965 -5z"/>
<path d="M8718 8430 c-4 -1089 -4 -3552 0 -4413 l2 -677 2095 0 2095 0 0 525
0 525 -1532 2 -1533 3 -3 700 c-2 385 0 728 3 763 l7 62 1339 0 1339 0 2 128
c1 70 2 306 3 525 l2 397 -1349 0 -1348 0 0 620 0 620 1465 0 1465 0 0 528 0
529 -2025 -1 -2025 -1 -2 -835z"/>
<path d="M13780 9266 c-1 0 -2 -1334 -4 -2963 l-2 -2963 543 0 543 0 2 2108 3
2109 445 -831 c245 -456 752 -1404 1127 -2106 l681 -1275 576 -3 576 -2 0
2967 0 2966 -332 -6 c-182 -4 -423 -7 -535 -7 l-203 0 -2 -2062 -3 -2063 -802
1505 c-441 828 -936 1757 -1100 2065 l-298 559 -607 2 c-335 1 -608 1 -608 0z"/>
<path d="M19377 9264 c-9 -9 -9 -5394 0 -5698 l6 -227 1326 4 c1432 3 1366 1
1603 56 431 101 821 363 1103 741 421 566 654 1450 632 2395 -18 746 -169
1341 -463 1815 -159 257 -399 492 -657 644 -246 144 -592 246 -886 261 -160 8
-2657 16 -2664 9z m2523 -1061 c263 -57 447 -157 567 -306 210 -261 326 -571
378 -1007 22 -183 31 -634 16 -830 -47 -617 -207 -1072 -479 -1361 -181 -193
-374 -289 -637 -319 -50 -5 -343 -10 -662 -10 l-573 0 0 1931 0 1930 648 -4
c608 -4 653 -5 742 -24z"/>
<path d="M24825 8150 c-7 -1046 -2 -4808 6 -4813 2 -1 259 -1 570 1 l566 3 6
661 c9 852 9 4594 0 4973 l-6 290 -567 0 -568 0 -7 -1115z"/>
</g>
</svg>
