<?xml version="1.0" standalone="no"?>
<!DOCTYPE svg PUBLIC "-//W3C//DTD SVG 20010904//EN"
 "http://www.w3.org/TR/2001/REC-SVG-20010904/DTD/svg10.dtd">
<svg version="1.0" xmlns="http://www.w3.org/2000/svg"
 width="1200.000000pt" height="600.000000pt" viewBox="0 0 1200.000000 600.000000"
 preserveAspectRatio="xMidYMid meet">

<g transform="translate(0.000000,600.000000) scale(0.100000,-0.100000)"
fill="#000000" stroke="none">
<path d="M7498 3744 c-173 -41 -315 -184 -363 -364 -56 -209 -2 -452 128 -583
102 -101 224 -147 393 -147 263 0 443 144 489 393 l7 38 -116 -3 -117 -3 -24
-59 c-46 -114 -116 -161 -240 -161 -102 0 -177 33 -230 102 -106 138 -94 404
23 521 133 132 385 91 448 -74 l17 -44 117 0 118 0 -13 51 c-44 167 -167 291
-330 334 -73 19 -229 18 -307 -1z"/>
<path d="M2935 3726 c-162 -51 -279 -189 -301 -355 l-7 -51 115 0 114 0 12 44
c6 25 25 60 42 79 51 58 81 67 234 67 l136 0 0 115 0 115 -152 -1 c-94 0 -169
-5 -193 -13z"/>
<path d="M3640 3200 l0 -540 115 0 115 0 0 230 0 230 260 0 260 0 0 95 0 95
-260 0 -260 0 0 115 0 115 275 0 275 0 0 100 0 100 -390 0 -390 0 0 -540z"/>
<path d="M4490 3650 l0 -90 105 0 105 0 0 90 0 90 -105 0 -105 0 0 -90z"/>
<path d="M4840 3200 l0 -540 100 0 100 0 0 50 0 51 33 -34 c52 -52 101 -71
192 -75 96 -5 145 7 208 49 194 128 210 518 28 681 -64 57 -122 78 -220 78
-87 0 -146 -22 -198 -73 l-33 -31 0 192 0 192 -105 0 -105 0 0 -540z m467 71
c29 -14 49 -33 70 -68 26 -44 28 -56 28 -148 0 -88 -3 -105 -25 -145 -67 -121
-245 -117 -306 7 -15 30 -19 60 -19 138 0 88 3 105 25 145 45 80 140 110 227
71z"/>
<path d="M5963 3446 c-104 -34 -185 -106 -232 -205 -24 -51 -26 -66 -26 -186
0 -125 1 -132 32 -197 37 -79 94 -137 171 -175 53 -26 66 -28 182 -28 114 0
130 2 181 26 72 34 133 89 170 154 16 27 29 53 29 58 0 4 -47 7 -105 7 -100 0
-105 -1 -121 -25 -45 -69 -186 -86 -259 -31 -36 28 -74 93 -75 129 0 16 20 17
285 17 l285 0 0 73 c0 171 -71 297 -205 362 -50 25 -71 29 -164 32 -71 2 -120
-2 -148 -11z m204 -165 c43 -20 86 -74 98 -123 l7 -28 -182 0 -182 0 7 28 c19
78 97 142 175 142 19 0 54 -9 77 -19z"/>
<path d="M8485 3447 c-150 -50 -242 -161 -266 -320 -29 -194 53 -367 208 -444
48 -23 73 -28 157 -31 125 -5 188 9 265 58 71 46 131 130 152 213 20 78 15
220 -9 290 -39 107 -97 169 -207 219 -62 27 -235 36 -300 15z m187 -167 c84
-24 136 -129 125 -257 -10 -126 -79 -203 -182 -203 -107 1 -172 73 -182 203
-14 187 89 298 239 257z"/>
<path d="M9470 3451 c-42 -13 -84 -38 -109 -65 -33 -35 -41 -33 -41 14 l0 40
-100 0 -100 0 0 -540 0 -540 105 0 105 0 0 190 0 190 48 -34 c68 -48 110 -59
211 -54 99 5 149 26 210 87 131 131 147 420 33 590 -33 49 -94 96 -152 116
-44 16 -166 19 -210 6z m134 -189 c17 -10 42 -38 56 -63 22 -39 25 -56 25
-144 0 -88 -3 -105 -25 -145 -67 -121 -245 -117 -306 7 -29 58 -27 223 3 279
26 48 41 62 90 80 46 17 114 11 157 -14z"/>
<path d="M6782 3414 c-77 -38 -127 -88 -164 -163 -22 -44 -23 -59 -26 -318
l-3 -273 106 0 105 0 0 225 c0 246 4 268 56 317 39 36 74 48 140 48 l54 0 0
100 0 100 -99 0 c-93 0 -102 -2 -169 -36z"/>
<path d="M4490 3050 l0 -390 105 0 105 0 0 390 0 390 -105 0 -105 0 0 -390z"/>
<path d="M2485 3291 c-172 -49 -303 -174 -363 -345 -48 -138 -30 -315 46 -446
45 -76 141 -164 223 -203 100 -47 155 -57 324 -57 l145 0 0 109 0 109 -149 4
c-144 4 -151 5 -215 37 -140 69 -206 218 -161 368 34 113 122 187 258 217 l27
6 0 110 0 110 -37 -1 c-21 0 -65 -8 -98 -18z"/>
<path d="M2860 3195 l0 -115 -115 0 -115 0 0 -205 0 -205 115 0 115 0 0 205 0
205 210 0 210 0 0 115 0 115 -210 0 -210 0 0 -115z"/>
</g>
</svg>
