<?xml version="1.0" standalone="no"?>
<!DOCTYPE svg PUBLIC "-//W3C//DTD SVG 20010904//EN"
 "http://www.w3.org/TR/2001/REC-SVG-20010904/DTD/svg10.dtd">
<svg version="1.0" xmlns="http://www.w3.org/2000/svg"
 width="900.000000pt" height="600.000000pt" viewBox="0 0 900.000000 600.000000"
 preserveAspectRatio="xMidYMid meet">

<g transform="translate(0.000000,600.000000) scale(0.100000,-0.100000)"
fill="#000000" stroke="none">
<path d="M7945 3969 c-4 -6 -5 -12 -2 -15 2 -3 7 2 10 11 7 17 1 20 -8 4z"/>
<path d="M8362 3934 c9 -20 9 -30 0 -45 -15 -24 -4 -25 13 -2 11 14 10 23 -1
45 -18 35 -28 37 -12 2z"/>
<path d="M7915 3860 c0 -21 3 -36 8 -33 10 6 9 61 -1 67 -4 2 -8 -13 -7 -34z"/>
<path d="M8638 3836 c-20 -16 -28 -31 -28 -54 0 -49 23 -39 44 18 10 28 17 53
15 55 -2 2 -16 -7 -31 -19z"/>
<path d="M7082 3803 c13 -29 26 -53 30 -53 9 0 -25 77 -41 93 -7 7 -2 -12 11
-40z"/>
<path d="M7495 3833 c3 -12 1 -33 -6 -45 -11 -21 -11 -22 4 -9 19 15 22 39 6
61 -8 12 -9 10 -4 -7z"/>
<path d="M8330 3816 c0 -14 -9 -31 -22 -40 -18 -13 -19 -16 -6 -16 35 0 65 59
38 75 -6 3 -10 -5 -10 -19z"/>
<path d="M8412 3818 c8 -7 20 -22 26 -33 9 -15 11 -16 12 -4 0 16 -30 49 -45
49 -5 0 -2 -6 7 -12z"/>
<path d="M8512 3775 c-22 -16 -32 -75 -12 -75 5 0 7 13 5 30 -4 37 7 45 41 27
17 -9 23 -17 15 -21 -6 -4 -11 -3 -11 2 0 17 -28 21 -34 5 -4 -11 -2 -14 9 -9
9 3 15 0 15 -9 0 -8 -4 -15 -9 -15 -5 0 -11 -6 -14 -14 -4 -9 2 -13 19 -13 18
0 24 5 24 23 0 12 5 26 10 29 6 4 7 11 4 17 -5 8 -1 9 11 4 15 -6 16 -4 5 9
-8 9 -22 14 -31 12 -10 -3 -19 -1 -21 4 -2 5 -13 2 -26 -6z"/>
<path d="M8591 3721 c-9 -6 -12 -18 -7 -36 5 -21 4 -26 -6 -22 -9 3 -14 -3
-15 -15 -2 -25 -28 -55 -68 -79 -20 -13 -24 -19 -13 -19 9 0 20 5 23 10 10 16
25 12 19 -5 -3 -8 -9 -14 -12 -13 -4 0 -16 0 -27 -1 -18 -1 -17 -3 5 -15 30
-16 36 -13 44 19 6 23 41 78 87 137 30 36 9 63 -30 39z"/>
<path d="M7162 3700 c0 -14 2 -19 5 -12 2 6 2 18 0 25 -3 6 -5 1 -5 -13z"/>
<path d="M7814 3658 l-29 -33 33 29 c17 17 32 31 32 33 0 8 -8 1 -36 -29z"/>
<path d="M7567 3619 c7 -7 15 -10 18 -7 3 3 -2 9 -12 12 -14 6 -15 5 -6 -5z"/>
<path d="M8155 3620 c-3 -5 -1 -10 4 -10 6 0 11 5 11 10 0 6 -2 10 -4 10 -3 0
-8 -4 -11 -10z"/>
<path d="M7710 3589 c-102 -9 -215 -30 -325 -60 -87 -23 -176 -58 -152 -59 10
0 34 7 54 15 56 23 215 63 328 81 60 9 169 16 270 17 126 1 152 3 100 8 -92 9
-159 8 -275 -2z"/>
<path d="M8088 3573 c7 -3 16 -2 19 1 4 3 -2 6 -13 5 -11 0 -14 -3 -6 -6z"/>
<path d="M8428 3543 c7 -3 16 -2 19 1 4 3 -2 6 -13 5 -11 0 -14 -3 -6 -6z"/>
<path d="M8479 3496 c39 -18 41 -19 41 -8 0 5 -6 9 -12 10 -7 0 -24 3 -38 7
-17 4 -14 1 9 -9z"/>
<path d="M2045 3485 c-136 -30 -244 -91 -343 -192 -108 -112 -182 -297 -182
-454 0 -82 29 -199 70 -284 81 -168 214 -283 395 -342 68 -22 98 -26 200 -27
108 0 128 3 206 30 216 76 370 240 430 459 29 106 24 277 -11 375 -96 270
-350 451 -630 449 -41 0 -102 -7 -135 -14z m188 -50 c95 -20 181 -69 257 -146
174 -177 265 -464 215 -678 -72 -305 -429 -463 -706 -315 -76 41 -185 155
-238 248 -72 127 -103 231 -109 367 -5 127 7 188 55 283 57 112 203 213 348
242 81 16 99 16 178 -1z"/>
<path d="M5251 3477 c-9 -21 -281 -716 -404 -1027 -67 -173 -101 -220 -156
-220 -17 0 -31 -4 -31 -10 0 -6 42 -10 105 -10 63 0 105 4 105 10 0 6 -9 10
-19 10 -11 0 -22 4 -25 9 -3 5 35 115 86 245 l92 236 221 0 221 0 92 -225 c51
-124 92 -232 92 -240 0 -9 -7 -18 -15 -21 -43 -17 0 -24 140 -24 97 0 155 4
155 10 0 6 -9 10 -20 10 -34 0 -77 27 -98 62 -11 18 -113 263 -227 543 -280
693 -260 648 -284 657 -17 6 -23 3 -30 -15z m73 -456 c53 -129 96 -239 96
-243 0 -4 -88 -8 -195 -8 -122 0 -195 4 -195 10 0 9 177 456 187 473 3 5 6 7
8 5 2 -2 46 -109 99 -237z"/>
<path d="M7498 3493 c7 -3 16 -2 19 1 4 3 -2 6 -13 5 -11 0 -14 -3 -6 -6z"/>
<path d="M7655 3473 c-103 -14 -336 -68 -398 -92 l-29 -11 5 -338 c5 -361 9
-396 67 -542 60 -153 191 -314 335 -414 82 -57 209 -126 232 -126 9 0 53 20
98 44 289 157 457 368 518 656 18 83 20 134 21 409 l1 314 -70 24 c-243 85
-516 112 -780 76z m82 -29 c-3 -3 -12 -4 -19 -1 -8 3 -5 6 6 6 11 1 17 -2 13
-5z m-192 -34 c-77 -17 -167 -38 -200 -48 l-60 -18 -6 -120 -5 -119 0 124 1
124 100 29 c108 31 232 56 280 56 17 1 -33 -12 -110 -28z m-91 -117 c-3 -16
-8 -36 -11 -46 -4 -16 1 -18 43 -16 46 3 49 2 51 -23 2 -25 -1 -26 -44 -25
-45 2 -46 1 -46 -29 -1 -16 3 -35 6 -41 9 -15 -2 -21 -33 -19 -23 1 -24 4 -21
50 l3 49 -47 -5 c-45 -6 -46 -5 -43 21 3 24 6 25 47 22 l44 -3 -5 46 -6 46 34
0 c32 0 34 -2 28 -27z m160 -149 c10 -4 16 -18 16 -35 0 -31 -14 -39 -24 -13
-8 21 -60 15 -64 -8 -2 -11 9 -23 30 -34 81 -40 100 -93 53 -140 -21 -21 -33
-25 -76 -22 -50 3 -52 4 -55 36 -4 35 6 41 26 16 20 -23 74 -15 78 13 2 16 -5
26 -30 39 -49 25 -68 49 -68 88 0 52 57 82 114 60z m195 -149 c47 -24 55 -69
19 -109 -27 -30 -78 -46 -78 -24 0 7 10 18 23 23 14 6 23 21 25 39 4 31 -10
46 -44 46 -19 0 -20 -4 -16 -105 l4 -105 -29 0 -28 0 0 125 0 125 48 0 c26 0
61 -7 76 -15z m170 -160 c30 -15 61 -69 61 -105 0 -31 -25 -75 -57 -98 -26
-19 -27 -20 -9 -46 9 -15 28 -31 42 -36 29 -12 32 -30 4 -30 -35 0 -77 28 -92
61 -8 18 -26 36 -45 44 -39 16 -73 68 -73 110 0 38 33 93 63 105 33 13 75 12
106 -5z m251 -185 c26 -26 25 -51 -1 -84 l-21 -26 22 -35 c12 -20 35 -42 51
-50 37 -20 37 -32 -1 -30 -34 2 -61 24 -91 72 -13 20 -29 33 -41 33 -19 0 -20
-5 -16 -50 5 -47 4 -50 -18 -50 l-24 0 3 120 2 120 58 0 c44 0 62 -5 77 -20z
m131 -248 c-52 -101 -206 -267 -309 -330 -28 -17 -52 -30 -52 -28 0 2 28 25
63 50 110 79 224 201 283 301 32 55 42 59 15 7z m-505 -420 c-5 -4 -106 46
-106 53 0 3 25 -7 55 -22 30 -15 53 -29 51 -31z"/>
<path d="M7887 2808 c-60 -47 -24 -158 52 -158 23 0 61 44 61 72 0 31 -27 73
-55 86 -32 15 -37 15 -58 0z"/>
<path d="M8130 2600 c0 -40 1 -41 31 -38 18 2 37 11 43 21 16 25 -4 51 -43 55
-30 3 -31 2 -31 -38z"/>
<path d="M8220 2635 c0 -5 5 -17 10 -25 5 -8 10 -10 10 -5 0 6 -5 17 -10 25
-5 8 -10 11 -10 5z"/>
<path d="M8200 2513 c0 -6 9 -21 21 -34 l20 -24 -17 30 c-24 39 -24 40 -24 28z"/>
<path d="M8250 2446 c0 -2 7 -7 16 -10 8 -3 12 -2 9 4 -6 10 -25 14 -25 6z"/>
<path d="M360 3470 c19 -5 43 -18 52 -31 17 -20 18 -56 16 -601 -3 -561 -4
-580 -22 -594 -11 -8 -35 -14 -53 -14 -18 0 -33 -4 -33 -10 0 -6 57 -10 150
-10 83 0 150 3 150 8 0 4 -10 12 -22 17 -23 10 -23 10 -26 296 l-2 287 22 6
c13 3 53 6 89 6 l66 0 164 -187 c232 -265 349 -384 411 -418 47 -27 62 -30
143 -30 66 0 103 5 140 20 l50 19 -66 7 c-37 4 -87 16 -110 27 -84 37 -303
250 -507 493 -71 85 -84 109 -59 109 30 0 136 61 174 101 63 66 87 127 87 224
1 64 -4 88 -21 121 -29 55 -89 101 -171 133 -66 25 -72 26 -362 28 -179 1
-281 -2 -260 -7z m505 -55 c66 -24 140 -98 155 -156 27 -99 -6 -237 -73 -308
-54 -57 -105 -73 -249 -79 l-127 -5 -3 283 c-2 155 -1 284 2 287 12 12 247 -5
295 -22z"/>
<path d="M3135 3469 c52 -13 85 -44 85 -82 0 -27 -120 -993 -136 -1090 -8 -48
-27 -67 -70 -67 -19 0 -34 -4 -34 -10 0 -6 40 -10 100 -10 92 0 128 10 80 23
-25 6 -25 30 -5 182 8 61 35 272 60 470 52 419 54 430 64 419 4 -5 106 -255
227 -555 120 -301 221 -545 223 -543 5 4 33 74 306 739 81 198 151 364 156
369 6 6 9 2 9 -10 0 -10 5 -53 10 -94 6 -41 21 -181 35 -310 14 -129 27 -244
29 -255 2 -11 7 -54 11 -95 4 -41 13 -124 20 -184 15 -118 13 -136 -16 -136
-10 0 -19 -4 -19 -9 0 -5 70 -10 160 -10 104 -1 160 2 160 9 0 5 -15 10 -34
10 -19 0 -44 8 -57 18 -21 18 -26 51 -90 563 -38 299 -69 563 -69 585 0 47 13
63 63 74 21 5 -9 8 -88 9 l-120 1 -190 -460 c-104 -253 -197 -478 -205 -500
-8 -22 -17 -40 -20 -40 -3 0 -67 154 -143 343 -75 188 -165 412 -200 497 l-63
155 -139 2 c-107 1 -130 -1 -100 -8z"/>
<path d="M7385 3470 c-13 -6 -15 -9 -5 -9 8 0 22 4 30 9 18 12 2 12 -25 0z"/>
<path d="M7292 3443 c-24 -8 -41 -17 -39 -19 2 -2 28 5 58 15 30 11 47 20 39
19 -8 0 -34 -6 -58 -15z"/>
<path d="M8470 3440 c8 -5 20 -10 25 -10 6 0 3 5 -5 10 -8 5 -19 10 -25 10 -5
0 -3 -5 5 -10z"/>
</g>
</svg>
