<?xml version="1.0" standalone="no"?>
<!DOCTYPE svg PUBLIC "-//W3C//DTD SVG 20010904//EN"
 "http://www.w3.org/TR/2001/REC-SVG-20010904/DTD/svg10.dtd">
<svg version="1.0" xmlns="http://www.w3.org/2000/svg"
 width="4887.000000pt" height="2622.000000pt" viewBox="0 0 4887.000000 2622.000000"
 preserveAspectRatio="xMidYMid meet">

<g transform="translate(0.000000,2622.000000) scale(0.100000,-0.100000)"
fill="#000000" stroke="none">
<path d="M30780 15930 c-385 -48 -715 -313 -815 -655 -36 -123 -45 -304 -21
-425 33 -160 103 -288 222 -401 133 -125 234 -185 579 -342 432 -197 531 -254
642 -370 150 -156 189 -377 108 -610 -51 -146 -172 -280 -320 -352 -108 -53
-182 -69 -320 -69 -209 0 -345 53 -476 185 -62 62 -85 95 -127 180 -28 57 -61
140 -74 184 -12 44 -23 81 -24 83 -1 2 -84 -19 -183 -48 -113 -31 -189 -58
-201 -70 -19 -19 -19 -20 5 -103 44 -153 87 -246 168 -366 140 -208 369 -360
622 -412 437 -90 856 47 1132 370 178 208 255 417 255 691 1 283 -76 470 -267
648 -147 137 -276 212 -689 396 -150 67 -309 144 -351 171 -181 113 -282 249
-293 394 -17 242 128 444 373 517 43 13 93 18 180 18 134 0 199 -14 300 -67
73 -39 173 -136 239 -234 42 -62 52 -71 68 -62 35 19 283 183 300 199 16 15
14 21 -38 99 -155 232 -373 385 -618 436 -98 20 -276 27 -376 15z"/>
<path d="M42850 15735 c-149 -68 -185 -88 -185 -104 0 -13 123 -144 344 -365
189 -190 347 -346 352 -346 5 0 57 27 115 59 69 38 109 67 110 78 3 18 -529
763 -544 763 -4 0 -90 -38 -192 -85z"/>
<path d="M37683 15641 c-82 -21 -164 -94 -200 -178 -23 -54 -22 -157 4 -213
54 -121 189 -183 319 -145 48 13 69 27 115 74 81 83 110 194 76 288 -46 125
-191 205 -314 174z"/>
<path d="M41156 15334 c-3 -9 -6 -184 -6 -390 l0 -374 -105 0 c-93 0 -105 -2
-115 -19 -6 -11 -10 -90 -10 -185 l0 -166 115 0 115 0 0 -915 0 -915 184 0
c182 0 184 0 190 23 3 12 6 424 6 915 l0 892 184 0 c158 0 185 2 190 16 3 9 6
92 6 185 l0 169 -190 0 -190 0 0 390 0 390 -184 0 c-158 0 -185 -2 -190 -16z"/>
<path d="M33443 14610 c-258 -27 -495 -142 -689 -335 -237 -236 -344 -487
-344 -809 0 -333 110 -605 336 -830 242 -243 558 -352 917 -318 301 29 527
138 732 353 193 202 289 411 317 691 27 267 -33 525 -171 735 -175 265 -440
444 -735 498 -107 19 -262 25 -363 15z m290 -376 c40 -9 115 -36 167 -61 83
-40 107 -57 190 -142 78 -78 104 -112 138 -181 53 -108 81 -218 89 -346 21
-365 -155 -664 -459 -778 -91 -35 -172 -47 -301 -47 -216 1 -371 64 -519 213
-75 75 -94 101 -137 190 -71 148 -86 221 -86 403 1 112 5 166 19 215 75 275
258 462 516 529 96 25 280 28 383 5z"/>
<path d="M36170 14609 c-384 -37 -719 -266 -908 -619 -130 -241 -165 -572 -92
-853 97 -368 413 -685 780 -781 307 -81 573 -53 867 90 62 31 126 69 143 85
l30 31 0 245 0 246 -112 -109 c-161 -156 -255 -213 -414 -250 -96 -22 -270
-19 -368 6 -138 35 -219 82 -327 190 -178 176 -251 373 -236 639 12 216 77
368 219 509 147 148 306 212 528 212 130 0 222 -19 320 -66 94 -44 161 -94
273 -203 57 -55 87 -79 87 -67 0 9 5 14 10 11 7 -4 10 78 10 239 l0 245 -68
40 c-149 87 -327 144 -500 161 -109 11 -123 11 -242 -1z"/>
<path d="M39460 14613 c-482 -38 -842 -376 -940 -883 -69 -357 -6 -719 171
-981 54 -82 176 -203 257 -258 206 -139 464 -200 727 -173 276 29 497 138 683
337 76 81 202 260 202 286 0 9 -47 42 -122 84 -68 38 -137 77 -154 87 l-31 18
-38 -61 c-126 -204 -285 -334 -459 -374 -87 -20 -255 -20 -342 0 -275 64 -469
302 -509 628 l-7 57 840 0 840 0 7 31 c4 17 4 77 0 132 -22 348 -113 579 -308
784 -157 165 -355 258 -606 283 -101 10 -120 10 -211 3z m245 -378 c216 -57
390 -232 458 -462 l16 -53 -628 0 -629 0 10 42 c49 221 237 414 458 472 74 20
241 20 315 1z"/>
<path d="M43020 14610 c-385 -54 -695 -321 -824 -710 -80 -240 -89 -546 -24
-795 79 -303 283 -562 543 -690 226 -111 510 -134 746 -59 150 47 253 110 381
232 l78 75 0 -147 0 -146 185 0 184 0 6 33 c3 17 4 511 3 1097 l-3 1065 -179
3 c-137 2 -181 -1 -188 -10 -4 -7 -8 -75 -8 -150 l0 -138 -63 63 c-125 125
-286 218 -448 257 -97 24 -291 34 -389 20z m385 -376 c33 -8 98 -33 145 -55
69 -34 101 -58 171 -128 71 -72 94 -104 133 -182 76 -155 102 -303 85 -490
-12 -138 -30 -205 -86 -319 -39 -79 -61 -109 -132 -180 -144 -143 -286 -201
-496 -201 -194 1 -324 52 -459 181 -167 161 -247 360 -249 625 -1 152 19 248
80 375 40 82 58 107 142 190 98 98 165 141 268 174 112 37 271 41 398 10z"/>
<path d="M37556 14548 c-3 -13 -6 -508 -6 -1100 l0 -1078 180 0 c167 0 180 1
190 19 7 13 10 375 10 1100 l0 1081 -184 0 c-182 0 -184 0 -190 -22z"/>
<path d="M40036 10744 c-3 -9 -6 -441 -6 -961 l0 -945 -69 65 c-219 206 -491
299 -785 268 -239 -26 -411 -103 -572 -254 -170 -160 -269 -332 -331 -572 -34
-134 -44 -409 -19 -562 59 -373 281 -686 588 -828 264 -121 600 -121 855 1 89
43 214 136 282 210 l51 56 0 -151 0 -151 184 0 184 0 6 31 c3 17 6 881 6 1920
l0 1889 -184 0 c-158 0 -185 -2 -190 -16z m-529 -1960 c138 -30 271 -114 365
-231 138 -170 185 -330 175 -590 -6 -159 -21 -223 -80 -343 -34 -70 -58 -102
-136 -180 -107 -107 -174 -146 -307 -180 -95 -25 -260 -27 -354 -4 -263 61
-472 306 -526 616 -20 114 -14 322 11 413 33 116 83 203 176 299 48 50 112
106 143 125 153 92 340 118 533 75z"/>
<path d="M31426 10490 c-241 -22 -429 -74 -641 -180 -177 -88 -298 -175 -449
-320 -234 -226 -381 -445 -479 -710 -111 -302 -136 -674 -67 -1008 98 -474
425 -918 865 -1177 484 -285 1130 -308 1642 -59 264 129 485 320 645 559 178
265 251 522 265 933 l6 182 -726 0 c-720 0 -727 0 -727 -20 0 -11 -4 -20 -10
-20 -6 0 -10 -67 -10 -180 l0 -180 516 0 515 0 -6 -47 c-38 -288 -115 -452
-297 -629 -348 -341 -864 -458 -1323 -301 -381 131 -732 460 -876 821 -139
351 -130 774 23 1124 137 313 437 601 753 723 427 166 899 122 1257 -117 113
-75 298 -248 388 -363 30 -38 57 -70 60 -70 15 -2 312 279 308 290 -9 24 -202
228 -284 300 -293 257 -558 385 -892 434 -130 19 -335 25 -456 15z"/>
<path d="M46179 10195 c-60 -19 -131 -83 -160 -143 -19 -37 -24 -64 -24 -127
0 -96 24 -154 87 -210 55 -50 101 -68 179 -68 81 0 141 26 194 85 54 59 69
100 69 193 0 51 -6 93 -16 116 -22 50 -83 116 -130 140 -51 26 -141 33 -199
14z"/>
<path d="M43840 9520 l0 -390 -109 0 c-104 0 -109 -1 -115 -22 -3 -13 -6 -98
-6 -190 l0 -168 115 0 115 0 0 -915 0 -915 184 0 184 0 6 31 c3 17 6 429 6
915 l0 884 185 0 184 0 6 33 c3 17 5 102 3 187 l-3 155 -187 3 -188 2 -2 388
-3 387 -187 3 -188 2 0 -390z"/>
<path d="M44956 9879 c-3 -17 -6 -193 -6 -390 l0 -358 -107 -3 -108 -3 -3
-187 -2 -188 110 0 110 0 0 -884 c0 -486 3 -898 6 -915 l7 -31 182 0 183 0 6
31 c3 17 6 429 6 915 l0 884 184 0 184 0 6 31 c3 17 6 89 6 159 0 70 -3 142
-6 159 l-6 31 -184 0 -184 0 0 359 c0 197 -3 373 -6 390 l-6 31 -183 0 -182 0
-7 -31z"/>
<path d="M34600 9174 c-14 -2 -52 -9 -85 -15 -413 -71 -748 -438 -830 -906
-20 -115 -20 -362 1 -484 69 -414 340 -744 704 -858 108 -34 189 -44 330 -44
162 1 280 28 407 91 93 47 221 141 281 206 23 25 45 46 47 46 3 0 5 -65 5
-145 l0 -145 185 0 c178 0 185 1 185 20 0 11 5 20 10 20 7 0 10 368 10 1085
l0 1085 -182 0 -183 0 -12 -27 c-8 -17 -13 -71 -13 -141 l0 -114 -67 62 c-125
118 -273 200 -432 241 -74 20 -301 34 -361 23z m348 -389 c120 -29 208 -80
308 -180 76 -76 97 -105 137 -185 66 -136 78 -190 84 -370 6 -194 -14 -305
-77 -437 -34 -70 -58 -102 -129 -173 -142 -142 -284 -200 -490 -200 -190 0
-325 50 -450 166 -113 105 -180 214 -227 371 -22 73 -27 114 -31 238 -10 281
46 435 218 604 89 88 213 154 329 176 88 17 235 13 328 -10z"/>
<path d="M37060 9171 c-148 -22 -254 -75 -361 -181 -154 -154 -219 -370 -175
-581 40 -186 143 -282 462 -435 337 -160 367 -177 421 -230 40 -40 55 -64 69
-110 20 -70 14 -165 -15 -221 -29 -59 -109 -127 -177 -152 -81 -31 -232 -27
-312 8 -69 31 -164 133 -220 238 l-42 81 -156 -66 c-86 -36 -159 -73 -162 -82
-3 -8 -10 -18 -16 -22 -6 -4 -1 -26 14 -60 77 -167 190 -305 314 -383 188
-116 452 -144 684 -70 212 67 383 239 458 460 23 66 28 102 32 210 11 348
-108 481 -636 711 -241 105 -319 160 -347 245 -25 74 -14 130 36 184 126 136
331 113 448 -51 22 -31 42 -61 43 -66 2 -6 75 26 162 72 86 45 155 85 152 88
-3 3 -1 11 5 19 9 10 3 26 -22 69 -97 159 -234 269 -384 309 -71 18 -204 26
-275 16z"/>
<path d="M41986 9169 c-335 -35 -644 -229 -835 -524 -168 -260 -221 -613 -140
-936 98 -386 419 -713 796 -810 256 -65 579 -37 807 70 342 160 585 485 641
858 62 408 -58 775 -339 1041 -187 177 -402 275 -665 301 -115 12 -150 12
-265 0z m219 -369 c195 -23 316 -81 450 -215 137 -137 203 -279 224 -483 23
-222 -30 -421 -155 -584 -89 -115 -237 -214 -379 -254 -92 -25 -305 -30 -402
-9 -270 59 -477 265 -554 551 -30 109 -32 337 -5 438 38 142 106 256 214 358
140 131 278 188 502 207 8 0 55 -4 105 -9z"/>
<path d="M46076 9108 c-8 -30 -8 -2117 0 -2157 l7 -31 181 2 181 3 0 1100 0
1100 -181 3 c-181 2 -182 2 -188 -20z"/>
<path d="M35020 5305 c0 -8 -4 -15 -10 -15 -7 0 -10 -642 -10 -1905 l0 -1905
185 0 c178 0 185 1 185 20 0 11 5 20 10 20 7 0 10 640 10 1900 l0 1900 -185 0
c-158 0 -185 -2 -185 -15z"/>
<path d="M29970 4980 c0 -11 -7 -20 -15 -20 -13 0 -15 -200 -15 -1740 l0
-1740 195 0 c188 0 195 1 195 20 0 11 7 20 15 20 13 0 15 200 15 1740 l0 1740
-195 0 c-188 0 -195 -1 -195 -20z"/>
<path d="M36197 4756 c-143 -53 -229 -227 -187 -378 16 -57 69 -119 129 -150
67 -35 171 -39 237 -9 84 38 145 127 166 241 21 109 -42 229 -146 282 -51 26
-148 33 -199 14z"/>
<path d="M31170 4450 c0 -11 -7 -20 -15 -20 -13 0 -15 -48 -15 -370 l0 -370
-100 0 c-91 0 -100 -2 -100 -19 0 -10 -7 -21 -15 -25 -13 -4 -15 -34 -15 -176
l0 -170 115 0 115 0 0 -910 0 -910 185 0 c178 0 185 1 185 20 0 11 7 20 15 20
13 0 15 106 15 890 l0 890 180 0 c173 0 180 1 180 20 0 11 5 20 10 20 6 0 10
65 10 175 l0 175 -190 0 -190 0 0 390 0 390 -185 0 c-178 0 -185 -1 -185 -20z"/>
<path d="M33016 3730 c-223 -35 -407 -131 -558 -288 -226 -237 -338 -527 -338
-877 0 -354 116 -652 338 -867 131 -127 265 -204 433 -250 74 -20 107 -23 269
-23 209 0 256 9 396 75 109 51 194 110 282 195 l72 71 0 -143 0 -143 185 0
c178 0 185 1 185 20 0 11 5 20 10 20 7 0 10 368 10 1085 l0 1085 -185 0 c-178
0 -185 -1 -185 -20 0 -11 -4 -20 -10 -20 -6 0 -10 -47 -10 -121 l0 -120 -57
55 c-127 122 -279 208 -433 246 -97 24 -310 34 -404 20z m389 -395 c189 -49
361 -193 450 -378 116 -243 107 -608 -22 -826 -81 -136 -221 -250 -367 -297
-108 -36 -280 -44 -389 -20 -202 45 -367 183 -467 390 -63 129 -84 234 -84
411 0 256 46 378 204 537 81 82 110 104 181 138 47 22 116 47 154 55 85 18
253 13 340 -10z"/>
<path d="M37916 3730 c-212 -34 -384 -118 -535 -264 -156 -151 -258 -335 -318
-573 -26 -101 -28 -122 -28 -328 0 -206 2 -227 27 -325 85 -335 276 -584 553
-721 143 -70 228 -90 413 -96 161 -6 226 2 342 39 141 45 274 129 388 245 l62
63 0 -145 0 -145 184 0 184 0 6 31 c3 17 6 515 6 1105 l0 1074 -184 0 -183 0
-7 -31 c-3 -17 -6 -83 -6 -147 l0 -115 -77 74 c-130 124 -265 200 -425 240
-95 23 -308 33 -402 19z m399 -395 c120 -31 203 -80 300 -179 101 -102 157
-195 196 -326 33 -115 39 -363 10 -482 -50 -210 -199 -402 -377 -484 -139 -65
-338 -83 -486 -45 -307 79 -513 363 -534 741 -14 245 48 426 202 586 110 114
226 178 372 204 66 12 245 4 317 -15z"/>
<path d="M36100 3670 c0 -11 -4 -20 -10 -20 -7 0 -10 -368 -10 -1085 l0 -1085
185 0 c178 0 185 1 185 20 0 11 5 20 10 20 7 0 10 368 10 1085 l0 1085 -185 0
c-178 0 -185 -1 -185 -20z"/>
</g>
</svg>
